<svg width="178" height="22" viewBox="0 0 178 22" fill="none" xmlns="http://www.w3.org/2000/svg">
<path d="M6.42773 16.14C6.8944 16.14 7.28107 16.0467 7.58773 15.86C7.90773 15.6733 8.16106 15.4333 8.34773 15.14C8.54773 14.8333 8.68773 14.48 8.76773 14.08C8.84773 13.68 8.88773 13.2733 8.88773 12.86C8.88773 12.4467 8.84107 12.04 8.74773 11.64C8.66773 11.24 8.52773 10.8867 8.32773 10.58C8.12773 10.26 7.86773 10.0067 7.54773 9.82C7.24107 9.62 6.86106 9.52 6.40773 9.52C5.94106 9.52 5.54773 9.62 5.22773 9.82C4.92106 10.0067 4.66773 10.2533 4.46773 10.56C4.28106 10.8667 4.14773 11.22 4.06773 11.62C3.98773 12.02 3.94773 12.4333 3.94773 12.86C3.94773 13.2733 3.98773 13.68 4.06773 14.08C4.16106 14.48 4.30106 14.8333 4.48773 15.14C4.68773 15.4333 4.94773 15.6733 5.26773 15.86C5.58773 16.0467 5.9744 16.14 6.42773 16.14ZM1.20773 7.66H3.90773V8.98H3.94773C4.2944 8.42 4.7344 8.01333 5.26773 7.76C5.80106 7.50667 6.38773 7.38 7.02773 7.38C7.84107 7.38 8.54107 7.53333 9.12773 7.84C9.7144 8.14667 10.2011 8.55333 10.5877 9.06C10.9744 9.56667 11.2611 10.16 11.4477 10.84C11.6344 11.5067 11.7277 12.2067 11.7277 12.94C11.7277 13.6333 11.6344 14.3 11.4477 14.94C11.2611 15.58 10.9744 16.1467 10.5877 16.64C10.2144 17.1333 9.74107 17.5267 9.16773 17.82C8.60773 18.1133 7.94773 18.26 7.18773 18.26C6.54773 18.26 5.9544 18.1333 5.40773 17.88C4.8744 17.6133 4.4344 17.2267 4.08773 16.72H4.04773V21.62H1.20773V7.66ZM16.1543 12.84C16.1543 13.2533 16.1943 13.66 16.2743 14.06C16.3543 14.4467 16.4876 14.8 16.6743 15.12C16.8743 15.4267 17.1343 15.6733 17.4543 15.86C17.7743 16.0467 18.1743 16.14 18.6543 16.14C19.1343 16.14 19.5343 16.0467 19.8543 15.86C20.1876 15.6733 20.4476 15.4267 20.6343 15.12C20.8343 14.8 20.9743 14.4467 21.0543 14.06C21.1343 13.66 21.1743 13.2533 21.1743 12.84C21.1743 12.4267 21.1343 12.02 21.0543 11.62C20.9743 11.22 20.8343 10.8667 20.6343 10.56C20.4476 10.2533 20.1876 10.0067 19.8543 9.82C19.5343 9.62 19.1343 9.52 18.6543 9.52C18.1743 9.52 17.7743 9.62 17.4543 9.82C17.1343 10.0067 16.8743 10.2533 16.6743 10.56C16.4876 10.8667 16.3543 11.22 16.2743 11.62C16.1943 12.02 16.1543 12.4267 16.1543 12.84ZM13.3143 12.84C13.3143 12.0133 13.441 11.2667 13.6943 10.6C13.9476 9.92 14.3076 9.34667 14.7743 8.88C15.241 8.4 15.801 8.03333 16.4543 7.78C17.1076 7.51333 17.841 7.38 18.6543 7.38C19.4676 7.38 20.201 7.51333 20.8543 7.78C21.521 8.03333 22.0876 8.4 22.5543 8.88C23.021 9.34667 23.381 9.92 23.6343 10.6C23.8876 11.2667 24.0143 12.0133 24.0143 12.84C24.0143 13.6667 23.8876 14.4133 23.6343 15.08C23.381 15.7467 23.021 16.32 22.5543 16.8C22.0876 17.2667 21.521 17.6267 20.8543 17.88C20.201 18.1333 19.4676 18.26 18.6543 18.26C17.841 18.26 17.1076 18.1333 16.4543 17.88C15.801 17.6267 15.241 17.2667 14.7743 16.8C14.3076 16.32 13.9476 15.7467 13.6943 15.08C13.441 14.4133 13.3143 13.6667 13.3143 12.84ZM37.8809 18H34.9609L33.1209 11.06H33.0809L31.3209 18H28.3809L25.1009 7.66H28.1009L30.0009 14.68H30.0409L31.7609 7.66H34.5209L36.2809 14.66H36.3209L38.2209 7.66H41.1409L37.8809 18ZM49.5099 11.72C49.3766 11 49.1366 10.4533 48.7899 10.08C48.4566 9.70667 47.9433 9.52 47.2499 9.52C46.7966 9.52 46.4166 9.6 46.1099 9.76C45.8166 9.90667 45.5766 10.0933 45.3899 10.32C45.2166 10.5467 45.0899 10.7867 45.0099 11.04C44.9433 11.2933 44.9033 11.52 44.8899 11.72H49.5099ZM44.8899 13.52C44.9299 14.44 45.1633 15.1067 45.5899 15.52C46.0166 15.9333 46.6299 16.14 47.4299 16.14C48.0033 16.14 48.4966 16 48.9099 15.72C49.3233 15.4267 49.5766 15.12 49.6699 14.8H52.1699C51.7699 16.04 51.1566 16.9267 50.3299 17.46C49.5033 17.9933 48.5033 18.26 47.3299 18.26C46.5166 18.26 45.7833 18.1333 45.1299 17.88C44.4766 17.6133 43.9233 17.24 43.4699 16.76C43.0166 16.28 42.6633 15.7067 42.4099 15.04C42.1699 14.3733 42.0499 13.64 42.0499 12.84C42.0499 12.0667 42.1766 11.3467 42.4299 10.68C42.6833 10.0133 43.0433 9.44 43.5099 8.96C43.9766 8.46667 44.5299 8.08 45.1699 7.8C45.8233 7.52 46.5433 7.38 47.3299 7.38C48.2099 7.38 48.9766 7.55333 49.6299 7.9C50.2833 8.23333 50.8166 8.68667 51.2299 9.26C51.6566 9.83333 51.9633 10.4867 52.1499 11.22C52.3366 11.9533 52.4033 12.72 52.3499 13.52H44.8899ZM54.2343 7.66H56.9343V9.58H56.9743C57.1076 9.26 57.2876 8.96667 57.5143 8.7C57.741 8.42 58.001 8.18667 58.2943 8C58.5876 7.8 58.901 7.64667 59.2343 7.54C59.5676 7.43333 59.9143 7.38 60.2743 7.38C60.461 7.38 60.6676 7.41333 60.8943 7.48V10.12C60.761 10.0933 60.601 10.0733 60.4143 10.06C60.2276 10.0333 60.0476 10.02 59.8743 10.02C59.3543 10.02 58.9143 10.1067 58.5543 10.28C58.1943 10.4533 57.901 10.6933 57.6743 11C57.461 11.2933 57.3076 11.64 57.2143 12.04C57.121 12.44 57.0743 12.8733 57.0743 13.34V18H54.2343V7.66ZM68.8162 11.72C68.6828 11 68.4428 10.4533 68.0962 10.08C67.7628 9.70667 67.2495 9.52 66.5562 9.52C66.1028 9.52 65.7228 9.6 65.4162 9.76C65.1228 9.90667 64.8828 10.0933 64.6962 10.32C64.5228 10.5467 64.3962 10.7867 64.3162 11.04C64.2495 11.2933 64.2095 11.52 64.1962 11.72H68.8162ZM64.1962 13.52C64.2362 14.44 64.4695 15.1067 64.8962 15.52C65.3228 15.9333 65.9362 16.14 66.7362 16.14C67.3095 16.14 67.8028 16 68.2162 15.72C68.6295 15.4267 68.8828 15.12 68.9762 14.8H71.4762C71.0762 16.04 70.4628 16.9267 69.6362 17.46C68.8095 17.9933 67.8095 18.26 66.6362 18.26C65.8228 18.26 65.0895 18.1333 64.4362 17.88C63.7828 17.6133 63.2295 17.24 62.7762 16.76C62.3228 16.28 61.9695 15.7067 61.7162 15.04C61.4762 14.3733 61.3562 13.64 61.3562 12.84C61.3562 12.0667 61.4828 11.3467 61.7362 10.68C61.9895 10.0133 62.3495 9.44 62.8162 8.96C63.2828 8.46667 63.8362 8.08 64.4762 7.8C65.1295 7.52 65.8495 7.38 66.6362 7.38C67.5162 7.38 68.2828 7.55333 68.9362 7.9C69.5895 8.23333 70.1228 8.68667 70.5362 9.26C70.9628 9.83333 71.2695 10.4867 71.4562 11.22C71.6428 11.9533 71.7095 12.72 71.6562 13.52H64.1962ZM80.8805 12.8C80.8805 12.3733 80.8405 11.9667 80.7605 11.58C80.6805 11.18 80.5405 10.8333 80.3405 10.54C80.1539 10.2333 79.9072 9.98667 79.6005 9.8C79.2939 9.61333 78.9072 9.52 78.4405 9.52C77.9739 9.52 77.5805 9.61333 77.2605 9.8C76.9405 9.98667 76.6805 10.2333 76.4805 10.54C76.2939 10.8467 76.1539 11.2 76.0605 11.6C75.9805 11.9867 75.9405 12.3933 75.9405 12.82C75.9405 13.22 75.9872 13.62 76.0805 14.02C76.1739 14.42 76.3205 14.78 76.5205 15.1C76.7339 15.4067 76.9939 15.66 77.3005 15.86C77.6205 16.0467 78.0005 16.14 78.4405 16.14C78.9072 16.14 79.2939 16.0467 79.6005 15.86C79.9205 15.6733 80.1739 15.4267 80.3605 15.12C80.5472 14.8 80.6805 14.44 80.7605 14.04C80.8405 13.64 80.8805 13.2267 80.8805 12.8ZM80.9205 16.68H80.8805C80.5472 17.24 80.1072 17.6467 79.5605 17.9C79.0272 18.14 78.4205 18.26 77.7405 18.26C76.9672 18.26 76.2872 18.1133 75.7005 17.82C75.1139 17.5133 74.6272 17.1067 74.2405 16.6C73.8672 16.08 73.5805 15.4867 73.3805 14.82C73.1939 14.1533 73.1005 13.46 73.1005 12.74C73.1005 12.0467 73.1939 11.38 73.3805 10.74C73.5805 10.0867 73.8672 9.51333 74.2405 9.02C74.6272 8.52667 75.1072 8.13333 75.6805 7.84C76.2539 7.53333 76.9205 7.38 77.6805 7.38C78.2939 7.38 78.8739 7.51333 79.4205 7.78C79.9805 8.03333 80.4205 8.41333 80.7405 8.92H80.7805V3.72H83.6205V18H80.9205V16.68ZM99.3135 12.84C99.3135 12.4 99.2668 11.98 99.1735 11.58C99.0802 11.18 98.9335 10.8267 98.7335 10.52C98.5335 10.2133 98.2802 9.97333 97.9735 9.8C97.6802 9.61333 97.3202 9.52 96.8935 9.52C96.4802 9.52 96.1202 9.61333 95.8135 9.8C95.5068 9.97333 95.2535 10.2133 95.0535 10.52C94.8535 10.8267 94.7068 11.18 94.6135 11.58C94.5202 11.98 94.4735 12.4 94.4735 12.84C94.4735 13.2667 94.5202 13.68 94.6135 14.08C94.7068 14.48 94.8535 14.8333 95.0535 15.14C95.2535 15.4467 95.5068 15.6933 95.8135 15.88C96.1202 16.0533 96.4802 16.14 96.8935 16.14C97.3202 16.14 97.6802 16.0533 97.9735 15.88C98.2802 15.6933 98.5335 15.4467 98.7335 15.14C98.9335 14.8333 99.0802 14.48 99.1735 14.08C99.2668 13.68 99.3135 13.2667 99.3135 12.84ZM91.7335 3.72H94.5735V8.92H94.6135C94.9602 8.38667 95.4268 8 96.0135 7.76C96.6135 7.50667 97.2335 7.38 97.8735 7.38C98.3935 7.38 98.9068 7.48667 99.4135 7.7C99.9202 7.91333 100.374 8.24 100.774 8.68C101.187 9.12 101.52 9.68667 101.774 10.38C102.027 11.06 102.154 11.8733 102.154 12.82C102.154 13.7667 102.027 14.5867 101.774 15.28C101.52 15.96 101.187 16.52 100.774 16.96C100.374 17.4 99.9202 17.7267 99.4135 17.94C98.9068 18.1533 98.3935 18.26 97.8735 18.26C97.1135 18.26 96.4335 18.14 95.8335 17.9C95.2335 17.66 94.7802 17.2533 94.4735 16.68H94.4335V18H91.7335V3.72ZM109.26 19.28C108.953 20.12 108.527 20.72 107.98 21.08C107.433 21.44 106.673 21.62 105.7 21.62C105.407 21.62 105.113 21.6067 104.82 21.58C104.54 21.5667 104.253 21.5467 103.96 21.52V19.18C104.227 19.2067 104.5 19.2333 104.78 19.26C105.06 19.2867 105.34 19.2933 105.62 19.28C105.993 19.24 106.267 19.0933 106.44 18.84C106.627 18.5867 106.72 18.3067 106.72 18C106.72 17.7733 106.68 17.56 106.6 17.36L102.98 7.66H106L108.34 14.74H108.38L110.64 7.66H113.58L109.26 19.28ZM130.218 16.0762C130.218 16.3431 130.166 16.5938 130.062 16.8281C129.964 17.0625 129.828 17.2676 129.652 17.4434C129.483 17.6126 129.281 17.7493 129.046 17.8535C128.812 17.9512 128.561 18 128.295 18H122.933C122.673 18 122.425 17.9512 122.191 17.8535C121.957 17.7493 121.752 17.6126 121.576 17.4434C121.407 17.2676 121.27 17.0625 121.166 16.8281C121.068 16.5938 121.019 16.3431 121.019 16.0762V3.5957H122.933V9.43555C122.946 9.18164 123.005 8.94401 123.109 8.72266C123.213 8.49479 123.35 8.29948 123.519 8.13672C123.695 7.96745 123.897 7.83724 124.125 7.74609C124.352 7.64844 124.597 7.59961 124.857 7.59961H128.295C128.561 7.59961 128.812 7.65169 129.046 7.75586C129.281 7.85352 129.483 7.99023 129.652 8.16602C129.828 8.33529 129.964 8.53711 130.062 8.77148C130.166 9.00586 130.218 9.25651 130.218 9.52344V16.0762ZM122.933 9.52344V16.0762H128.295V9.52344H122.933ZM142.616 16.0762C142.616 16.3431 142.564 16.5938 142.459 16.8281C142.362 17.0625 142.225 17.2676 142.049 17.4434C141.88 17.6126 141.678 17.7493 141.444 17.8535C141.216 17.9512 140.968 18 140.702 18H135.536C135.275 18 135.028 17.9512 134.793 17.8535C134.559 17.7493 134.354 17.6126 134.178 17.4434C134.009 17.2676 133.872 17.0625 133.768 16.8281C133.67 16.5938 133.621 16.3431 133.621 16.0762V9.52344C133.621 9.25651 133.67 9.00586 133.768 8.77148C133.872 8.53711 134.009 8.33529 134.178 8.16602C134.354 7.99023 134.559 7.85352 134.793 7.75586C135.028 7.65169 135.275 7.59961 135.536 7.59961H140.702C140.968 7.59961 141.216 7.65169 141.444 7.75586C141.678 7.85352 141.88 7.99023 142.049 8.16602C142.225 8.33529 142.362 8.53711 142.459 8.77148C142.564 9.00586 142.616 9.25651 142.616 9.52344V16.0762ZM135.536 9.52344V16.0762H140.702V9.52344H135.536ZM155.091 7.59961L151.312 12.6777L155.267 18H152.943L150.15 14.2402L147.347 18H145.023L148.988 12.6777L145.208 7.59961H147.523L150.15 11.1152L152.767 7.59961H155.091Z" fill="#343434"/>
<rect x="157" width="21" height="21" rx="3" fill="#343434"/>
<path d="M166.053 7.67969V16H164.514V7.67969H166.053ZM164.436 4.47656H166.131V6.07812H164.436V4.47656ZM170.478 7.67969V16H168.939V7.67969H170.478ZM168.861 4.47656H170.557V6.07812H168.861V4.47656Z" fill="#F9F0EA"/>
</svg>
