<svg width="114" height="23" viewBox="0 0 114 23" fill="none" xmlns="http://www.w3.org/2000/svg">
<path d="M107.704 18.1981C106.348 18.1981 105.15 17.8926 104.109 17.2812C103.069 16.6516 102.252 15.7903 101.658 14.6976C101.082 13.6046 100.794 12.3448 100.794 10.9187C100.794 9.49252 101.082 8.23271 101.658 7.13975C102.252 6.04707 103.06 5.19502 104.082 4.58363C105.122 3.95398 106.31 3.63903 107.648 3.63903C108.948 3.63903 110.072 3.96324 111.019 4.61166C111.966 5.2413 112.7 6.13037 113.22 7.27885C113.74 8.42734 114 9.77945 114 11.3354H102.494L103.051 10.8631C103.051 11.9746 103.246 12.9285 103.636 13.725C104.045 14.5215 104.611 15.1326 105.335 15.5586C106.06 15.9661 106.886 16.17 107.815 16.17C108.799 16.17 109.626 15.9384 110.295 15.4753C110.982 15.0123 111.511 14.4009 111.883 13.6417L113.805 14.614C113.458 15.3292 112.975 15.9707 112.384 16.5035C111.808 17.0403 111.121 17.4573 110.322 17.7538C109.542 18.05 108.669 18.1981 107.704 18.1981ZM103.19 9.91828L102.605 9.47401H112.217L111.632 9.94631C111.632 9.05698 111.455 8.28824 111.103 7.64008C110.75 6.99166 110.276 6.4916 109.682 6.13962C109.087 5.78791 108.4 5.61179 107.62 5.61179C106.858 5.61179 106.134 5.78765 105.447 6.13962C104.778 6.4916 104.23 6.99166 103.803 7.64008C103.394 8.26999 103.19 9.02895 103.19 9.91828ZM92.8313 17.8649L98.5149 3.97249H100.855L95.0322 17.8649H92.8313ZM92.6918 17.8649L86.869 3.97249H89.1815L94.8652 17.8649H92.6918ZM84.2794 17.8649L84.168 15.5864V10.5297C84.168 9.43672 84.0473 8.5384 83.8058 7.83445C83.5645 7.11225 83.1837 6.56564 82.6634 6.19516C82.1434 5.82493 81.4654 5.63982 80.6296 5.63982C79.8683 5.63982 79.2088 5.79717 78.6517 6.11186C78.1129 6.4083 77.6671 6.88985 77.3142 7.55678L75.3084 6.77879C75.6611 6.13037 76.0883 5.57477 76.59 5.11172C77.0914 4.63017 77.6764 4.26894 78.3452 4.02803C79.0139 3.76887 79.7752 3.63929 80.6296 3.63929C81.93 3.63929 82.9978 3.89845 83.8336 4.41703C84.688 4.91709 85.3289 5.66732 85.7561 6.66746C86.1833 7.64934 86.3875 8.87187 86.3689 10.3353L86.341 17.8649H84.2794ZM80.1003 18.1981C78.4658 18.1981 77.1842 17.8278 76.2556 17.0869C75.3456 16.3274 74.8905 15.2807 74.8905 13.9471C74.8905 12.5395 75.3548 11.465 76.2835 10.724C77.2307 9.96482 78.5493 9.58508 80.2398 9.58508H84.2237V11.4468H80.7412C79.4411 11.4468 78.5122 11.6597 77.9551 12.0857C77.4165 12.5114 77.1471 13.1228 77.1471 13.9193C77.1471 14.6418 77.4165 15.2159 77.9551 15.6419C78.4936 16.0494 79.2459 16.2533 80.2117 16.2533C81.0104 16.2533 81.707 16.0867 82.3015 15.7533C82.8957 15.4013 83.3507 14.9105 83.6666 14.2806C84.0009 13.6324 84.168 12.8729 84.168 12.0024H85.1152C85.1152 13.8916 84.688 15.4013 83.8336 16.5313C82.9792 17.6425 81.7348 18.1981 80.1003 18.1981ZM67.7055 18.1981C66.3497 18.1981 65.1517 17.8926 64.1114 17.2812C63.0714 16.6516 62.2542 15.7903 61.6597 14.6976C61.084 13.6046 60.796 12.3448 60.796 10.9187C60.796 9.49252 61.084 8.23271 61.6597 7.13975C62.2542 6.04707 63.0622 5.19502 64.0836 4.58363C65.1238 3.95398 66.3126 3.63903 67.6498 3.63903C68.95 3.63903 70.0737 3.96324 71.0209 4.61166C71.9681 5.2413 72.7018 6.13037 73.2218 7.27885C73.7421 8.42734 74.002 9.77945 74.002 11.3354H62.4955L63.0529 10.8631C63.0529 11.9746 63.2478 12.9285 63.6378 13.725C64.0465 14.5215 64.6129 15.1326 65.3373 15.5586C66.0617 15.9661 66.8883 16.17 67.8169 16.17C68.8015 16.17 69.628 15.9384 70.2965 15.4753C70.9838 15.0123 71.5131 14.4009 71.8846 13.6417L73.8071 14.614C73.4597 15.3292 72.9772 15.9707 72.386 16.5035C71.8103 17.0403 71.123 17.4573 70.3243 17.7538C69.5442 18.05 68.6713 18.1981 67.7055 18.1981ZM63.1921 9.91828L62.6071 9.47401H72.219L71.6337 9.94631C71.6337 9.05698 71.4574 8.28824 71.1045 7.64008C70.7515 6.99166 70.2779 6.4916 69.6837 6.13962C69.0892 5.78791 68.4021 5.61179 67.622 5.61179C66.8604 5.61179 66.136 5.78765 65.4487 6.13962C64.7802 6.4916 64.2323 6.99166 63.8049 7.64008C63.3963 8.26999 63.1921 9.02895 63.1921 9.91828ZM53.846 17.8649L58.5546 3.97249H60.8111L56.075 17.8649H53.846ZM44.3733 17.8649L49.0819 3.97249H51.1715L46.5185 17.8649H44.3733ZM44.262 17.8649L39.5255 3.97249H41.7824L46.435 17.8649H44.262ZM53.846 17.8649L49.1933 3.97249H51.3107L55.9633 17.8649H53.846ZM6.2662 0.00290881C6.46985 5.70223 7.7416 10.916 9.75317 15.0871C8.10912 16.6032 6.23889 17.6829 4.22705 18.2081C1.65412 13.5515 0.0599281 7.33677 0 0.495835V0.00290881H6.2662ZM14.9348 6.97738C14.0306 9.47639 12.635 11.7604 11.1225 13.566C9.40368 9.74163 8.26133 5.04561 7.98052 0.00264451H13.9341C14.073 2.43977 14.4159 4.77799 14.9348 6.97738Z" fill="#1D1C1A"/>
<path d="M23.6997 0.00237971C23.337 6.54131 21.5638 12.3895 18.8986 16.6817C18.0023 18.1282 17.0037 19.3965 15.9234 20.454C15.4678 20.9045 14.9833 21.3249 14.4729 21.7125C14.4554 21.7247 14.4379 21.7398 14.4207 21.7519C11.5993 23.8773 7.54829 23.2159 5.53407 20.3178C5.33711 20.0341 5.14667 19.7458 4.9629 19.4534C6.92727 18.8639 8.76276 17.7964 10.3946 16.3424C10.9278 15.8685 11.4312 15.3622 11.9021 14.8266C13.3253 13.2215 14.5448 11.2947 15.5057 9.12732C16.7131 6.41015 17.5104 3.31165 17.7809 0H23.6971L23.6997 0.00264451V0.00237971Z" fill="#1D1C1A"/>
<path d="M26.0186 20.1372C23.7806 22.9385 19.9807 23.8649 17.189 21.7149C17.1344 21.6729 17.0824 21.6308 17.0278 21.5885C18.0487 20.6473 19.0023 19.5277 19.8816 18.2546C22.9983 13.7244 25.107 7.25717 25.4994 0.00264451H31.7683C31.6466 7.59671 29.3865 15.9265 26.0186 20.1396V20.1372Z" fill="#1D1C1A"/>
</svg>
